<mxfile host="app.diagrams.net" modified="2023-11-08T04:05:50.315Z" agent="Mozilla/5.0 (X11; Ubuntu; Linux x86_64; rv:109.0) Gecko/20100101 Firefox/119.0" etag="jj9IJ_gkONcXu86ln0iY" version="22.0.8" type="github">
  <diagram id="C5RBs43oDa-KdzZeNtuy" name="Page-1">
    <mxGraphModel dx="941" dy="548" grid="1" gridSize="10" guides="1" tooltips="1" connect="1" arrows="1" fold="1" page="1" pageScale="1" pageWidth="827" pageHeight="1169" math="0" shadow="0">
      <root>
        <mxCell id="WIyWlLk6GJQsqaUBKTNV-0" />
        <mxCell id="WIyWlLk6GJQsqaUBKTNV-1" parent="WIyWlLk6GJQsqaUBKTNV-0" />
        <mxCell id="WIyWlLk6GJQsqaUBKTNV-2" value="" style="rounded=0;html=1;jettySize=auto;orthogonalLoop=1;fontSize=11;endArrow=block;endFill=0;endSize=8;strokeWidth=1;shadow=0;labelBackgroundColor=none;edgeStyle=orthogonalEdgeStyle;" parent="WIyWlLk6GJQsqaUBKTNV-1" edge="1">
          <mxGeometry relative="1" as="geometry">
            <mxPoint x="260.0000000000002" y="120" as="sourcePoint" />
            <mxPoint x="260" y="170" as="targetPoint" />
          </mxGeometry>
        </mxCell>
        <mxCell id="iI63qpxl3PrZ1tXXogWA-2" value="masukan kartu atm &lt;br&gt;kedalam mesin atm" style="shape=parallelogram;html=1;strokeWidth=2;perimeter=parallelogramPerimeter;whiteSpace=wrap;rounded=1;arcSize=12;size=0.23;" vertex="1" parent="WIyWlLk6GJQsqaUBKTNV-1">
          <mxGeometry x="151" y="170" width="218" height="60" as="geometry" />
        </mxCell>
        <mxCell id="iI63qpxl3PrZ1tXXogWA-4" value="" style="rounded=0;html=1;jettySize=auto;orthogonalLoop=1;fontSize=11;endArrow=block;endFill=0;endSize=8;strokeWidth=1;shadow=0;labelBackgroundColor=none;edgeStyle=orthogonalEdgeStyle;" edge="1" parent="WIyWlLk6GJQsqaUBKTNV-1">
          <mxGeometry relative="1" as="geometry">
            <mxPoint x="260" y="230" as="sourcePoint" />
            <mxPoint x="260" y="280" as="targetPoint" />
          </mxGeometry>
        </mxCell>
        <mxCell id="iI63qpxl3PrZ1tXXogWA-11" value="Start" style="strokeWidth=2;html=1;shape=mxgraph.flowchart.start_1;whiteSpace=wrap;" vertex="1" parent="WIyWlLk6GJQsqaUBKTNV-1">
          <mxGeometry x="210" y="60" width="100" height="60" as="geometry" />
        </mxCell>
        <mxCell id="iI63qpxl3PrZ1tXXogWA-12" value="End" style="strokeWidth=2;html=1;shape=mxgraph.flowchart.start_1;whiteSpace=wrap;" vertex="1" parent="WIyWlLk6GJQsqaUBKTNV-1">
          <mxGeometry x="199" y="1780" width="100" height="60" as="geometry" />
        </mxCell>
        <mxCell id="iI63qpxl3PrZ1tXXogWA-15" value="" style="rounded=0;html=1;jettySize=auto;orthogonalLoop=1;fontSize=11;endArrow=block;endFill=0;endSize=8;strokeWidth=1;shadow=0;labelBackgroundColor=none;edgeStyle=orthogonalEdgeStyle;" edge="1" parent="WIyWlLk6GJQsqaUBKTNV-1">
          <mxGeometry relative="1" as="geometry">
            <mxPoint x="259.66" y="340" as="sourcePoint" />
            <mxPoint x="259.66" y="390" as="targetPoint" />
          </mxGeometry>
        </mxCell>
        <mxCell id="iI63qpxl3PrZ1tXXogWA-18" value="" style="rounded=0;html=1;jettySize=auto;orthogonalLoop=1;fontSize=11;endArrow=block;endFill=0;endSize=8;strokeWidth=1;shadow=0;labelBackgroundColor=none;edgeStyle=orthogonalEdgeStyle;" edge="1" parent="WIyWlLk6GJQsqaUBKTNV-1">
          <mxGeometry relative="1" as="geometry">
            <mxPoint x="260.66" y="450" as="sourcePoint" />
            <mxPoint x="260.66" y="500" as="targetPoint" />
          </mxGeometry>
        </mxCell>
        <mxCell id="iI63qpxl3PrZ1tXXogWA-28" value="Pilih bahasa" style="shape=parallelogram;html=1;strokeWidth=2;perimeter=parallelogramPerimeter;whiteSpace=wrap;rounded=1;arcSize=12;size=0.23;" vertex="1" parent="WIyWlLk6GJQsqaUBKTNV-1">
          <mxGeometry x="151" y="280" width="218" height="60" as="geometry" />
        </mxCell>
        <mxCell id="iI63qpxl3PrZ1tXXogWA-29" value="Masukkan Pin ATM" style="shape=parallelogram;html=1;strokeWidth=2;perimeter=parallelogramPerimeter;whiteSpace=wrap;rounded=1;arcSize=12;size=0.23;" vertex="1" parent="WIyWlLk6GJQsqaUBKTNV-1">
          <mxGeometry x="152" y="390" width="218" height="60" as="geometry" />
        </mxCell>
        <mxCell id="iI63qpxl3PrZ1tXXogWA-31" value="Apakah pin sudah benar?" style="strokeWidth=2;html=1;shape=mxgraph.flowchart.decision;whiteSpace=wrap;" vertex="1" parent="WIyWlLk6GJQsqaUBKTNV-1">
          <mxGeometry x="180" y="500" width="160" height="100" as="geometry" />
        </mxCell>
        <mxCell id="iI63qpxl3PrZ1tXXogWA-35" value="" style="rounded=0;html=1;jettySize=auto;orthogonalLoop=1;fontSize=11;endArrow=block;endFill=0;endSize=8;strokeWidth=1;shadow=0;labelBackgroundColor=none;edgeStyle=orthogonalEdgeStyle;entryX=0.878;entryY=0.544;entryDx=0;entryDy=0;entryPerimeter=0;" edge="1" parent="WIyWlLk6GJQsqaUBKTNV-1" target="iI63qpxl3PrZ1tXXogWA-29">
          <mxGeometry relative="1" as="geometry">
            <mxPoint x="340" y="550" as="sourcePoint" />
            <mxPoint x="340" y="600" as="targetPoint" />
            <Array as="points">
              <mxPoint x="400" y="550" />
              <mxPoint x="400" y="423" />
            </Array>
          </mxGeometry>
        </mxCell>
        <mxCell id="iI63qpxl3PrZ1tXXogWA-36" value="" style="rounded=0;html=1;jettySize=auto;orthogonalLoop=1;fontSize=11;endArrow=block;endFill=0;endSize=8;strokeWidth=1;shadow=0;labelBackgroundColor=none;edgeStyle=orthogonalEdgeStyle;" edge="1" parent="WIyWlLk6GJQsqaUBKTNV-1">
          <mxGeometry relative="1" as="geometry">
            <mxPoint x="259.76000000000005" y="600" as="sourcePoint" />
            <mxPoint x="259.76000000000005" y="650" as="targetPoint" />
          </mxGeometry>
        </mxCell>
        <mxCell id="iI63qpxl3PrZ1tXXogWA-37" value="Pilih Jenis Transaksi " style="shape=parallelogram;html=1;strokeWidth=2;perimeter=parallelogramPerimeter;whiteSpace=wrap;rounded=1;arcSize=12;size=0.23;" vertex="1" parent="WIyWlLk6GJQsqaUBKTNV-1">
          <mxGeometry x="152" y="650" width="218" height="60" as="geometry" />
        </mxCell>
        <mxCell id="iI63qpxl3PrZ1tXXogWA-38" value="No" style="text;html=1;align=center;verticalAlign=middle;resizable=0;points=[];autosize=1;strokeColor=none;fillColor=none;" vertex="1" parent="WIyWlLk6GJQsqaUBKTNV-1">
          <mxGeometry x="394" y="470" width="40" height="30" as="geometry" />
        </mxCell>
        <mxCell id="iI63qpxl3PrZ1tXXogWA-39" value="Yes" style="text;html=1;align=center;verticalAlign=middle;resizable=0;points=[];autosize=1;strokeColor=none;fillColor=none;" vertex="1" parent="WIyWlLk6GJQsqaUBKTNV-1">
          <mxGeometry x="260" y="600" width="40" height="30" as="geometry" />
        </mxCell>
        <mxCell id="iI63qpxl3PrZ1tXXogWA-40" value="" style="rounded=0;html=1;jettySize=auto;orthogonalLoop=1;fontSize=11;endArrow=block;endFill=0;endSize=8;strokeWidth=1;shadow=0;labelBackgroundColor=none;edgeStyle=orthogonalEdgeStyle;" edge="1" parent="WIyWlLk6GJQsqaUBKTNV-1">
          <mxGeometry relative="1" as="geometry">
            <mxPoint x="260.66" y="710" as="sourcePoint" />
            <mxPoint x="260.66" y="760" as="targetPoint" />
          </mxGeometry>
        </mxCell>
        <mxCell id="iI63qpxl3PrZ1tXXogWA-41" value="Apakah memilih transaksi penarikan tunai ?" style="strokeWidth=2;html=1;shape=mxgraph.flowchart.decision;whiteSpace=wrap;" vertex="1" parent="WIyWlLk6GJQsqaUBKTNV-1">
          <mxGeometry x="175" y="760" width="170" height="100" as="geometry" />
        </mxCell>
        <mxCell id="iI63qpxl3PrZ1tXXogWA-43" value="" style="rounded=0;html=1;jettySize=auto;orthogonalLoop=1;fontSize=11;endArrow=block;endFill=0;endSize=8;strokeWidth=1;shadow=0;labelBackgroundColor=none;edgeStyle=orthogonalEdgeStyle;" edge="1" parent="WIyWlLk6GJQsqaUBKTNV-1">
          <mxGeometry relative="1" as="geometry">
            <mxPoint x="259.76000000000005" y="860" as="sourcePoint" />
            <mxPoint x="259.76000000000005" y="910" as="targetPoint" />
          </mxGeometry>
        </mxCell>
        <mxCell id="iI63qpxl3PrZ1tXXogWA-44" value="Yes" style="text;html=1;align=center;verticalAlign=middle;resizable=0;points=[];autosize=1;strokeColor=none;fillColor=none;" vertex="1" parent="WIyWlLk6GJQsqaUBKTNV-1">
          <mxGeometry x="260" y="860" width="40" height="30" as="geometry" />
        </mxCell>
        <mxCell id="iI63qpxl3PrZ1tXXogWA-45" value="" style="rounded=0;html=1;jettySize=auto;orthogonalLoop=1;fontSize=11;endArrow=block;endFill=0;endSize=8;strokeWidth=1;shadow=0;labelBackgroundColor=none;edgeStyle=orthogonalEdgeStyle;entryX=1;entryY=0.5;entryDx=0;entryDy=0;" edge="1" parent="WIyWlLk6GJQsqaUBKTNV-1" target="iI63qpxl3PrZ1tXXogWA-37">
          <mxGeometry relative="1" as="geometry">
            <mxPoint x="345.00000000000006" y="810" as="sourcePoint" />
            <mxPoint x="345.00000000000006" y="860" as="targetPoint" />
            <Array as="points">
              <mxPoint x="400" y="810" />
              <mxPoint x="400" y="680" />
            </Array>
          </mxGeometry>
        </mxCell>
        <mxCell id="iI63qpxl3PrZ1tXXogWA-46" value="No" style="text;html=1;align=center;verticalAlign=middle;resizable=0;points=[];autosize=1;strokeColor=none;fillColor=none;" vertex="1" parent="WIyWlLk6GJQsqaUBKTNV-1">
          <mxGeometry x="394" y="730" width="40" height="30" as="geometry" />
        </mxCell>
        <mxCell id="iI63qpxl3PrZ1tXXogWA-47" value="Masukkan Nominal Penarikan" style="shape=parallelogram;html=1;strokeWidth=2;perimeter=parallelogramPerimeter;whiteSpace=wrap;rounded=1;arcSize=12;size=0.23;" vertex="1" parent="WIyWlLk6GJQsqaUBKTNV-1">
          <mxGeometry x="152" y="910" width="218" height="60" as="geometry" />
        </mxCell>
        <mxCell id="iI63qpxl3PrZ1tXXogWA-48" value="" style="rounded=0;html=1;jettySize=auto;orthogonalLoop=1;fontSize=11;endArrow=block;endFill=0;endSize=8;strokeWidth=1;shadow=0;labelBackgroundColor=none;edgeStyle=orthogonalEdgeStyle;" edge="1" parent="WIyWlLk6GJQsqaUBKTNV-1">
          <mxGeometry relative="1" as="geometry">
            <mxPoint x="259.52000000000004" y="970" as="sourcePoint" />
            <mxPoint x="259.52000000000004" y="1020" as="targetPoint" />
          </mxGeometry>
        </mxCell>
        <mxCell id="iI63qpxl3PrZ1tXXogWA-49" value="&lt;div&gt;Apakah nominal&amp;nbsp;&lt;/div&gt;&lt;div&gt;penarikan tersedia ? &lt;/div&gt;" style="strokeWidth=2;html=1;shape=mxgraph.flowchart.decision;whiteSpace=wrap;" vertex="1" parent="WIyWlLk6GJQsqaUBKTNV-1">
          <mxGeometry x="174" y="1020" width="170" height="100" as="geometry" />
        </mxCell>
        <mxCell id="iI63qpxl3PrZ1tXXogWA-54" value="Ketik Nominal yang diinginkan" style="html=1;strokeWidth=2;shape=manualInput;whiteSpace=wrap;rounded=1;size=26;arcSize=11;" vertex="1" parent="WIyWlLk6GJQsqaUBKTNV-1">
          <mxGeometry x="20" y="1035" width="100" height="70" as="geometry" />
        </mxCell>
        <mxCell id="iI63qpxl3PrZ1tXXogWA-55" value="" style="rounded=0;html=1;jettySize=auto;orthogonalLoop=1;fontSize=11;endArrow=block;endFill=0;endSize=8;strokeWidth=1;shadow=0;labelBackgroundColor=none;edgeStyle=orthogonalEdgeStyle;entryX=1;entryY=0.5;entryDx=0;entryDy=0;" edge="1" parent="WIyWlLk6GJQsqaUBKTNV-1" target="iI63qpxl3PrZ1tXXogWA-54">
          <mxGeometry relative="1" as="geometry">
            <mxPoint x="174.00000000000006" y="1070" as="sourcePoint" />
            <mxPoint x="174.00000000000006" y="1120" as="targetPoint" />
          </mxGeometry>
        </mxCell>
        <mxCell id="iI63qpxl3PrZ1tXXogWA-57" value="" style="rounded=0;html=1;jettySize=auto;orthogonalLoop=1;fontSize=11;endArrow=block;endFill=0;endSize=8;strokeWidth=1;shadow=0;labelBackgroundColor=none;edgeStyle=orthogonalEdgeStyle;entryX=0.142;entryY=0.425;entryDx=0;entryDy=0;entryPerimeter=0;" edge="1" parent="WIyWlLk6GJQsqaUBKTNV-1" target="iI63qpxl3PrZ1tXXogWA-58">
          <mxGeometry relative="1" as="geometry">
            <mxPoint x="345.00000000000006" y="1070" as="sourcePoint" />
            <mxPoint x="345.00000000000006" y="1120" as="targetPoint" />
          </mxGeometry>
        </mxCell>
        <mxCell id="iI63qpxl3PrZ1tXXogWA-58" value="Pilih Nominal yang tersedia" style="shape=parallelogram;html=1;strokeWidth=2;perimeter=parallelogramPerimeter;whiteSpace=wrap;rounded=1;arcSize=12;size=0.23;" vertex="1" parent="WIyWlLk6GJQsqaUBKTNV-1">
          <mxGeometry x="370" y="1045" width="218" height="60" as="geometry" />
        </mxCell>
        <mxCell id="iI63qpxl3PrZ1tXXogWA-60" value="pilih penarikan &lt;br&gt;dari rekening tabungan" style="shape=parallelogram;html=1;strokeWidth=2;perimeter=parallelogramPerimeter;whiteSpace=wrap;rounded=1;arcSize=12;size=0.23;" vertex="1" parent="WIyWlLk6GJQsqaUBKTNV-1">
          <mxGeometry x="140" y="1169" width="218" height="60" as="geometry" />
        </mxCell>
        <mxCell id="iI63qpxl3PrZ1tXXogWA-62" value="" style="rounded=0;html=1;jettySize=auto;orthogonalLoop=1;fontSize=11;endArrow=block;endFill=0;endSize=8;strokeWidth=1;shadow=0;labelBackgroundColor=none;edgeStyle=orthogonalEdgeStyle;" edge="1" parent="WIyWlLk6GJQsqaUBKTNV-1" target="iI63qpxl3PrZ1tXXogWA-60">
          <mxGeometry relative="1" as="geometry">
            <mxPoint x="69.66000000000003" y="1105" as="sourcePoint" />
            <mxPoint x="69.66000000000003" y="1155" as="targetPoint" />
            <Array as="points">
              <mxPoint x="70" y="1200" />
            </Array>
          </mxGeometry>
        </mxCell>
        <mxCell id="iI63qpxl3PrZ1tXXogWA-64" value="" style="rounded=0;html=1;jettySize=auto;orthogonalLoop=1;fontSize=11;endArrow=block;endFill=0;endSize=8;strokeWidth=1;shadow=0;labelBackgroundColor=none;edgeStyle=orthogonalEdgeStyle;entryX=0.872;entryY=0.556;entryDx=0;entryDy=0;entryPerimeter=0;" edge="1" parent="WIyWlLk6GJQsqaUBKTNV-1" target="iI63qpxl3PrZ1tXXogWA-60">
          <mxGeometry relative="1" as="geometry">
            <mxPoint x="478.86" y="1105" as="sourcePoint" />
            <mxPoint x="478.86" y="1155" as="targetPoint" />
            <Array as="points">
              <mxPoint x="479" y="1202" />
            </Array>
          </mxGeometry>
        </mxCell>
        <mxCell id="iI63qpxl3PrZ1tXXogWA-65" value="" style="rounded=0;html=1;jettySize=auto;orthogonalLoop=1;fontSize=11;endArrow=block;endFill=0;endSize=8;strokeWidth=1;shadow=0;labelBackgroundColor=none;edgeStyle=orthogonalEdgeStyle;" edge="1" parent="WIyWlLk6GJQsqaUBKTNV-1">
          <mxGeometry relative="1" as="geometry">
            <mxPoint x="248.80000000000004" y="1229" as="sourcePoint" />
            <mxPoint x="248.80000000000004" y="1279" as="targetPoint" />
          </mxGeometry>
        </mxCell>
        <mxCell id="iI63qpxl3PrZ1tXXogWA-66" value="Uang dan struk sedang di proses" style="rounded=1;whiteSpace=wrap;html=1;absoluteArcSize=1;arcSize=14;strokeWidth=2;" vertex="1" parent="WIyWlLk6GJQsqaUBKTNV-1">
          <mxGeometry x="160" y="1280" width="169" height="80" as="geometry" />
        </mxCell>
        <mxCell id="iI63qpxl3PrZ1tXXogWA-67" value="" style="rounded=0;html=1;jettySize=auto;orthogonalLoop=1;fontSize=11;endArrow=block;endFill=0;endSize=8;strokeWidth=1;shadow=0;labelBackgroundColor=none;edgeStyle=orthogonalEdgeStyle;" edge="1" parent="WIyWlLk6GJQsqaUBKTNV-1">
          <mxGeometry relative="1" as="geometry">
            <mxPoint x="248.80000000000007" y="1360" as="sourcePoint" />
            <mxPoint x="248.80000000000007" y="1410" as="targetPoint" />
          </mxGeometry>
        </mxCell>
        <mxCell id="iI63qpxl3PrZ1tXXogWA-69" value="Ambil Uang dan Struk" style="shape=parallelogram;html=1;strokeWidth=2;perimeter=parallelogramPerimeter;whiteSpace=wrap;rounded=1;arcSize=12;size=0.23;" vertex="1" parent="WIyWlLk6GJQsqaUBKTNV-1">
          <mxGeometry x="135.5" y="1410" width="218" height="60" as="geometry" />
        </mxCell>
        <mxCell id="iI63qpxl3PrZ1tXXogWA-70" value="" style="rounded=0;html=1;jettySize=auto;orthogonalLoop=1;fontSize=11;endArrow=block;endFill=0;endSize=8;strokeWidth=1;shadow=0;labelBackgroundColor=none;edgeStyle=orthogonalEdgeStyle;" edge="1" parent="WIyWlLk6GJQsqaUBKTNV-1">
          <mxGeometry relative="1" as="geometry">
            <mxPoint x="248.80000000000007" y="1470" as="sourcePoint" />
            <mxPoint x="248.80000000000007" y="1520" as="targetPoint" />
          </mxGeometry>
        </mxCell>
        <mxCell id="iI63qpxl3PrZ1tXXogWA-71" value="Apakah ingin melakukan transaksi lain?&quot;" style="strokeWidth=2;html=1;shape=mxgraph.flowchart.decision;whiteSpace=wrap;" vertex="1" parent="WIyWlLk6GJQsqaUBKTNV-1">
          <mxGeometry x="159" y="1520" width="180" height="100" as="geometry" />
        </mxCell>
        <mxCell id="iI63qpxl3PrZ1tXXogWA-72" value="" style="rounded=0;html=1;jettySize=auto;orthogonalLoop=1;fontSize=11;endArrow=block;endFill=0;endSize=8;strokeWidth=1;shadow=0;labelBackgroundColor=none;edgeStyle=orthogonalEdgeStyle;entryX=1;entryY=0.25;entryDx=0;entryDy=0;" edge="1" parent="WIyWlLk6GJQsqaUBKTNV-1" target="iI63qpxl3PrZ1tXXogWA-37">
          <mxGeometry relative="1" as="geometry">
            <mxPoint x="339.00000000000006" y="1570" as="sourcePoint" />
            <mxPoint x="363" y="666" as="targetPoint" />
            <Array as="points">
              <mxPoint x="640" y="1570" />
              <mxPoint x="640" y="667" />
            </Array>
          </mxGeometry>
        </mxCell>
        <mxCell id="iI63qpxl3PrZ1tXXogWA-73" value="yes" style="text;html=1;align=center;verticalAlign=middle;resizable=0;points=[];autosize=1;strokeColor=none;fillColor=none;" vertex="1" parent="WIyWlLk6GJQsqaUBKTNV-1">
          <mxGeometry x="640" y="940" width="40" height="30" as="geometry" />
        </mxCell>
        <mxCell id="iI63qpxl3PrZ1tXXogWA-74" value="No" style="text;html=1;align=center;verticalAlign=middle;resizable=0;points=[];autosize=1;strokeColor=none;fillColor=none;" vertex="1" parent="WIyWlLk6GJQsqaUBKTNV-1">
          <mxGeometry x="260" y="1620" width="40" height="30" as="geometry" />
        </mxCell>
        <mxCell id="iI63qpxl3PrZ1tXXogWA-75" value="" style="rounded=0;html=1;jettySize=auto;orthogonalLoop=1;fontSize=11;endArrow=block;endFill=0;endSize=8;strokeWidth=1;shadow=0;labelBackgroundColor=none;edgeStyle=orthogonalEdgeStyle;" edge="1" parent="WIyWlLk6GJQsqaUBKTNV-1">
          <mxGeometry relative="1" as="geometry">
            <mxPoint x="248.76000000000008" y="1620" as="sourcePoint" />
            <mxPoint x="248.76000000000008" y="1670" as="targetPoint" />
          </mxGeometry>
        </mxCell>
        <mxCell id="iI63qpxl3PrZ1tXXogWA-77" value="Kartu atm keluar" style="shape=parallelogram;html=1;strokeWidth=2;perimeter=parallelogramPerimeter;whiteSpace=wrap;rounded=1;arcSize=12;size=0.23;" vertex="1" parent="WIyWlLk6GJQsqaUBKTNV-1">
          <mxGeometry x="140" y="1670" width="218" height="60" as="geometry" />
        </mxCell>
        <mxCell id="iI63qpxl3PrZ1tXXogWA-78" value="" style="rounded=0;html=1;jettySize=auto;orthogonalLoop=1;fontSize=11;endArrow=block;endFill=0;endSize=8;strokeWidth=1;shadow=0;labelBackgroundColor=none;edgeStyle=orthogonalEdgeStyle;" edge="1" parent="WIyWlLk6GJQsqaUBKTNV-1">
          <mxGeometry relative="1" as="geometry">
            <mxPoint x="248.7600000000001" y="1730" as="sourcePoint" />
            <mxPoint x="248.7600000000001" y="1780" as="targetPoint" />
          </mxGeometry>
        </mxCell>
      </root>
    </mxGraphModel>
  </diagram>
</mxfile>
